<svg width="205" height="205" viewBox="0 0 205 205" fill="none" xmlns="http://www.w3.org/2000/svg">
<g clip-path="url(#clip0_24_8)">
<path fill-rule="evenodd" clip-rule="evenodd" d="M76.2079 158.008C58.6079 110.529 40.3909 68.291 51.5666 44.4632C61.8876 22.458 83.5075 22.6842 96.353 28.709C103.969 32.2809 119.084 42.9181 117.415 70.1499C137.447 51.4461 155.434 56.4901 162.759 59.9259C177.503 66.841 188.959 83.6934 179.267 104.358C168.19 127.977 125.974 140.44 76.2079 158.008ZM165.482 54.1213C152.694 48.1237 136.838 48.0655 123.429 57.3276C121.976 41.0243 111.828 28.8857 99.0755 22.9045C80.5995 14.2388 56.6629 18.4992 45.7621 41.7407C33.0726 68.7959 52.4291 111.639 72.3773 166.175C127.07 146.647 172.382 134.135 185.072 107.08C195.992 83.7981 183.934 62.776 165.482 54.1213Z" fill="#DD5656"/>
</g>
<defs>
<clipPath id="clip0_24_8">
<rect width="153.872" height="153.872" fill="white" transform="translate(65.3394) rotate(25.1276)"/>
</clipPath>
</defs>
</svg>
