<svg width="214" height="214" viewBox="0 0 214 214" fill="none" xmlns="http://www.w3.org/2000/svg">
<g clip-path="url(#clip0_24_2)">
<path fill-rule="evenodd" clip-rule="evenodd" d="M119.542 179.531C69.5398 145.014 22.5422 116.071 17.1042 84.963C12.0822 56.2344 33.4772 41.5607 50.2476 38.6291C60.1901 36.8911 82.3681 36.9268 99.4912 64.8287C106.284 32.6524 127.429 25.2152 136.992 23.5434C156.241 20.1786 179.107 28.8409 183.823 55.819C189.213 86.6544 156.327 127.984 119.542 179.531ZM135.668 15.9653C118.973 18.8836 103.356 29.7514 96.5649 48.0886C83.9047 33.0735 65.572 28.1406 48.9229 31.051C24.8017 35.2676 4.22188 55.9449 9.52609 86.2877C15.7006 121.609 64.2347 150.362 121.406 190.194C161.682 133.327 197.576 89.8159 191.401 54.4943C186.088 24.0985 159.759 11.754 135.668 15.9653Z" fill="#DD5656"/>
</g>
<defs>
<clipPath id="clip0_24_2">
<rect width="184.633" height="184.633" fill="white" transform="translate(0 31.7935) rotate(-9.91564)"/>
</clipPath>
</defs>
</svg>
